<svg width="180" height="180" viewBox="0 0 100 100" fill="none" xmlns="http://www.w3.org/2000/svg">
  <!-- Rounded dark background for contrast -->
  <rect width="100" height="100" rx="22" fill="#0A0908" />
  
  <!-- Steam (sizzling) -->
  <path d="M 38 42 Q 35 32 40 25 T 38 10" stroke="#C9820A" stroke-width="3" stroke-linecap="round" fill="none" />
  <path d="M 50 40 Q 47 30 52 23 T 50 8" stroke="#C9820A" stroke-width="4" stroke-linecap="round" fill="none" />
  <path d="M 62 42 Q 59 32 64 25 T 62 10" stroke="#C9820A" stroke-width="3" stroke-linecap="round" fill="none" />
  
  <!-- Coffee Cup Body -->
  <path d="M 28 45 L 72 45 C 72 65 65 75 50 75 C 35 75 28 65 28 45 Z" fill="#E5A842" />
  
  <!-- Cup Handle -->
  <path d="M 72 50 C 82 50 82 65 71 65" stroke="#E5A842" stroke-width="5" stroke-linecap="round" fill="none" />
  
  <!-- Saucer/Plate -->
  <path d="M 20 80 L 80 80 C 80 85 75 87 50 87 C 25 87 20 85 20 80 Z" fill="#C9820A" />
</svg>
